<svg width="58" height="44" viewBox="0 0 58 44" fill="none" xmlns="http://www.w3.org/2000/svg">
<path d="M55.7989 42.0001V37.5556C55.7989 35.1982 54.8624 32.9372 53.1954 31.2702C51.5284 29.6033 49.2675 28.6667 46.91 28.6667H29.1322C26.7747 28.6667 24.5138 29.6033 22.8468 31.2702C21.1798 32.9372 20.2433 35.1982 20.2433 37.5556V42.0001" stroke="#31405D" stroke-width="3" stroke-linecap="round" stroke-linejoin="round"/>
<path d="M38.0211 19.7778C42.9303 19.7778 46.91 15.7981 46.91 10.8889C46.91 5.9797 42.9303 2 38.0211 2C33.1119 2 29.1322 5.9797 29.1322 10.8889C29.1322 15.7981 33.1119 19.7778 38.0211 19.7778Z" stroke="#31405D" stroke-width="3" stroke-linecap="round" stroke-linejoin="round"/>
<path d="M15.064 21.8727H24.1024V15.7922H15.064V6.67163H9.03841V15.7922H0V21.8727H9.03841V30.9933H15.064V21.8727Z" fill="#003032" fill-opacity="0.87"/>
</svg>
