<svg width="15" height="17" viewBox="0 0 15 17" fill="none" xmlns="http://www.w3.org/2000/svg">
<mask id="path-1-inside-1_28_907" fill="white">
<path d="M12.4179 6H10.7143V1C10.7143 0.45 10.2321 0 9.64286 0H5.35714C4.76786 0 4.28571 0.45 4.28571 1V6H2.58214C1.62857 6 1.14643 7.08 1.82143 7.71L6.73929 12.3C7.15714 12.69 7.83214 12.69 8.25 12.3L13.1679 7.71C13.8429 7.08 13.3714 6 12.4179 6ZM0 16C0 16.55 0.482143 17 1.07143 17H13.9286C14.5179 17 15 16.55 15 16C15 15.45 14.5179 15 13.9286 15H1.07143C0.482143 15 0 15.45 0 16Z"/>
</mask>
<path d="M10.7143 6H9.21428V7.5H10.7143V6ZM4.28571 6V7.5H5.78571V6H4.28571ZM8.25 12.3L7.22652 11.2034L7.22652 11.2034L8.25 12.3ZM13.1679 7.71L14.1913 8.80658V8.80658L13.1679 7.71ZM12.4179 4.5H10.7143V7.5H12.4179V4.5ZM12.2143 6V1H9.21428V6H12.2143ZM12.2143 1C12.2143 -0.474221 10.9614 -1.5 9.64286 -1.5V1.5C9.5532 1.5 9.45643 1.46533 9.37608 1.39033C9.29432 1.31402 9.21428 1.17758 9.21428 1H12.2143ZM9.64286 -1.5H5.35714V1.5H9.64286V-1.5ZM5.35714 -1.5C4.03858 -1.5 2.78571 -0.474221 2.78571 1H5.78571C5.78571 1.17758 5.70568 1.31402 5.62392 1.39033C5.54357 1.46533 5.4468 1.5 5.35714 1.5V-1.5ZM2.78571 1V6H5.78571V1H2.78571ZM4.28571 4.5H2.58214V7.5H4.28571V4.5ZM2.58214 4.5C1.49796 4.5 0.611064 5.13246 0.220875 6.00837C-0.175708 6.89863 -0.041123 8.02345 0.797951 8.80658L2.84491 6.61342C2.90613 6.67056 2.97223 6.77238 2.99682 6.90641C3.01979 7.03167 2.99923 7.14392 2.96127 7.22913C2.88179 7.40754 2.71275 7.5 2.58214 7.5V4.5ZM0.797951 8.80658L5.71581 13.3966L7.76276 11.2034L2.84491 6.61342L0.797951 8.80658ZM5.71581 13.3966C6.70998 14.3245 8.27931 14.3245 9.27348 13.3966L7.22652 11.2034C7.31551 11.1204 7.41643 11.0925 7.49464 11.0925C7.57286 11.0925 7.67377 11.1204 7.76276 11.2034L5.71581 13.3966ZM9.27348 13.3966L14.1913 8.80658L12.1444 6.61342L7.22652 11.2034L9.27348 13.3966ZM14.1913 8.80658C15.0244 8.02903 15.1686 6.91021 14.7777 6.01719C14.3917 5.13558 13.5045 4.5 12.4179 4.5V7.5C12.2848 7.5 12.1101 7.40442 12.0295 7.22031C11.9914 7.13339 11.9724 7.02155 11.9955 6.89887C12.0203 6.76785 12.085 6.66886 12.1444 6.61342L14.1913 8.80658ZM-1.5 16C-1.5 17.4742 -0.24713 18.5 1.07143 18.5V15.5C1.16108 15.5 1.25785 15.5347 1.33821 15.6097C1.41997 15.686 1.5 15.8224 1.5 16H-1.5ZM1.07143 18.5H13.9286V15.5H1.07143V18.5ZM13.9286 18.5C15.2471 18.5 16.5 17.4742 16.5 16H13.5C13.5 15.8224 13.58 15.686 13.6618 15.6097C13.7421 15.5347 13.8389 15.5 13.9286 15.5V18.5ZM16.5 16C16.5 14.5258 15.2471 13.5 13.9286 13.5V16.5C13.8389 16.5 13.7421 16.4653 13.6618 16.3903C13.58 16.314 13.5 16.1776 13.5 16H16.5ZM13.9286 13.5H1.07143V16.5H13.9286V13.5ZM1.07143 13.5C-0.24713 13.5 -1.5 14.5258 -1.5 16H1.5C1.5 16.1776 1.41997 16.314 1.33821 16.3903C1.25785 16.4653 1.16108 16.5 1.07143 16.5V13.5Z" fill="#F9CD63" mask="url(#path-1-inside-1_28_907)"/>
</svg>
