<svg width="24" height="30" viewBox="0 0 24 30" fill="none" xmlns="http://www.w3.org/2000/svg">
<path d="M12 29.484C13.65 29.484 15 28.1303 15 26.4757H9C9 28.1303 10.35 29.484 12 29.484ZM21 20.459V12.9382C21 8.3204 18.555 4.45469 14.25 3.43185V2.40902C14.25 1.16056 13.245 0.152771 12 0.152771C10.755 0.152771 9.75 1.16056 9.75 2.40902V3.43185C5.46 4.45469 3 8.30535 3 12.9382V20.459L0 23.4674V24.9715H24V23.4674L21 20.459ZM18 21.9632H6V12.9382C6 9.20785 8.265 6.16944 12 6.16944C15.735 6.16944 18 9.20785 18 12.9382V21.9632Z" fill="#003032"/>
</svg>
