<svg width="13" height="14" viewBox="0 0 13 14" fill="none" xmlns="http://www.w3.org/2000/svg">
<path d="M9.53232 8.81798H8.9299L8.71639 8.61164C9.63145 7.54174 10.1042 6.08209 9.84496 4.53073C9.48656 2.4062 7.71745 0.70964 5.58232 0.449806C2.35675 0.0524137 -0.35792 2.77303 0.0386044 6.00566C0.29787 8.14547 1.99073 9.91846 4.11061 10.2776C5.65858 10.5375 7.11504 10.0637 8.18261 9.1466L8.3885 9.36058V9.96431L11.6293 13.2122C11.942 13.5256 12.4529 13.5256 12.7655 13.2122C13.0782 12.8989 13.0782 12.3869 12.7655 12.0735L9.53232 8.81798ZM4.95703 8.81798C3.05829 8.81798 1.52557 7.28191 1.52557 5.37901C1.52557 3.47611 3.05829 1.94003 4.95703 1.94003C6.85578 1.94003 8.3885 3.47611 8.3885 5.37901C8.3885 7.28191 6.85578 8.81798 4.95703 8.81798Z" fill="#053233"/>
</svg>
