<svg width="15" height="17" viewBox="0 0 15 17" fill="none" xmlns="http://www.w3.org/2000/svg">
<path d="M13.75 1.44793L12.5 0.194458L11.25 1.44793L10 0.194458L8.75 1.44793L7.5 0.194458L6.25 1.44793L5 0.194458L3.75 1.44793L2.5 0.194458L1.25 1.44793L0 0.194458V16.9074L1.25 15.6539L2.5 16.9074L3.75 15.6539L5 16.9074L6.25 15.6539L7.5 16.9074L8.75 15.6539L10 16.9074L11.25 15.6539L12.5 16.9074L13.75 15.6539L15 16.9074V0.194458L13.75 1.44793ZM13.3333 14.4757H1.66667V2.62619H13.3333V14.4757ZM2.5 11.0579H12.5V12.7292H2.5V11.0579ZM2.5 7.71529H12.5V9.38659H2.5V7.71529ZM2.5 4.3727H12.5V6.044H2.5V4.3727Z" fill="#9D9D9D"/>
</svg>
